<?xml version="1.0" encoding="UTF-8" standalone="no"?>
<!-- Created with Inkscape (http://www.inkscape.org/) -->

<svg
   version="1.1"
   id="svg1"
   width="2496"
   height="1696"
   viewBox="0 0 2496 1696"
   sodipodi:docname="Logo1.svg"
   inkscape:export-filename="Logo1.png"
   inkscape:export-xdpi="65.230766"
   inkscape:export-ydpi="65.230766"
   inkscape:version="1.4.2 (ebf0e940, 2025-05-08)"
   xmlns:inkscape="http://www.inkscape.org/namespaces/inkscape"
   xmlns:sodipodi="http://sodipodi.sourceforge.net/DTD/sodipodi-0.dtd"
   xmlns="http://www.w3.org/2000/svg"
   xmlns:svg="http://www.w3.org/2000/svg">
  <defs
     id="defs1" />
  <sodipodi:namedview
     id="namedview1"
     pagecolor="#505050"
     bordercolor="#eeeeee"
     borderopacity="1"
     inkscape:showpageshadow="0"
     inkscape:pageopacity="0"
     inkscape:pagecheckerboard="0"
     inkscape:deskcolor="#505050"
     inkscape:zoom="0.49406479"
     inkscape:cx="960.40035"
     inkscape:cy="648.70034"
     inkscape:window-width="1800"
     inkscape:window-height="1130"
     inkscape:window-x="0"
     inkscape:window-y="39"
     inkscape:window-maximized="0"
     inkscape:current-layer="g1" />
  <g
     inkscape:groupmode="layer"
     inkscape:label="Image"
     id="g1">
    <path
       style="fill:#ffffff;fill-opacity:1;stroke:#000000;stroke-opacity:1"
       d="M -9.3532308,849.53376 V 1.533798 H 1238.6467 h 1248 V 849.53376 1697.5337 h -1248 H -9.3532308 Z M 1681.6467,1299.3136 c 25.6222,-5.0301 47.6869,-11.3313 60.6317,-17.315 15.2725,-7.0597 27.1835,-12.907 30.3683,-14.9082 68.0943,-42.789 108.4422,-104.575 119.2145,-182.5567 1.6675,-12.0709 2.4022,-773.57053 0.7617,-789.4999 -7.2309,-70.21524 -41.7255,-134.99077 -91.3279,-171.5 -2.6154,-1.925 -7.9223,-5.92039 -11.7932,-8.87865 -15.8219,-12.09164 -50.4044,-28.968322 -71.3551,-34.822132 -1.1,-0.30735 -5.6,-1.56557 -10,-2.79604 -4.4,-1.23047 -11.825,-2.78275 -16.5,-3.4495 -4.675,-0.66676 -11.2,-1.73486 -14.5,-2.37355 -12.5902,-2.43676 -776.48237,-2.11506 -797.49993,0.33585 -86.93778,10.13805 -162.4881,66.719142 -196.26152,146.984022 -10.24387,24.34526 -14.01275,38.81636 -17.7061,67.98477 -2.18488,17.25514 -3.34723,786.59193 -1.19475,790.78093 0.4901,0.9539 1.18335,5.3951 1.54056,9.8695 0.35721,4.4744 1.56837,12.3494 2.69147,17.5 1.12311,5.1506 2.48555,12.0071 3.02765,15.2367 0.5421,3.2296 2.09198,8.5946 3.44416,11.9224 1.35219,3.3278 2.45853,6.4223 2.45853,6.8767 0,2.1548 13.29114,30.7019 16.44867,35.3289 2.42193,3.5492 4.78511,7.7426 6.94284,12.3201 8.26804,17.5403 50.16084,60.0175 72.34326,73.3526 3.72088,2.2368 7.66523,4.8819 8.76523,5.8779 1.1,0.9961 8.3,4.8129 16,8.4818 7.7,3.6689 16.25646,7.7501 19.01435,9.0692 2.7579,1.3191 5.59274,2.3984 6.29966,2.3984 0.70692,0 2.58633,0.6728 4.17646,1.4951 1.59014,0.8223 7.53029,2.6787 13.20034,4.1254 5.67005,1.4466 10.75919,2.9671 11.30919,3.3788 0.55,0.4116 3.25,1.0544 6,1.4284 2.75,0.3739 6.3747,1.1116 8.05489,1.6393 11.76848,3.6959 14.41619,3.7184 416.94504,3.5474 359.7152,-0.1529 390.6601,-0.2953 398.5,-1.8345 z m -619,-280.3195 c -8.3007,-1.6681 -20.4922,-6.0025 -25,-8.8882 -28.1606,-18.02654 -37.79336,-31.90794 -48.97276,-70.57214 -2.30588,-7.975 -5.04017,-16.525 -6.07617,-19 -1.03601,-2.475 -3.51572,-9.9 -5.51048,-16.5 -1.99476,-6.6 -6.2671,-19.9653 -9.49409,-29.7008 -3.22698,-9.7355 -6.98471,-21.8855 -8.35049,-27 -1.36578,-5.1145 -4.76588,-16.2742 -7.55576,-24.7992 -2.78989,-8.525 -6.20783,-19.325 -7.59542,-24 -1.3876,-4.675 -5.19585,-16.825 -8.46279,-27 -3.26693,-10.175 -6.88887,-21.875 -8.04874,-26 -3.19159,-11.3506 -8.01328,-25.9275 -9.55109,-28.8747 -0.7534,-1.4439 -1.37259,-3.2309 -1.37598,-3.9712 -0.0146,-3.1843 -8.63073,-28.2938 -12.06287,-35.1541 -9.31072,-18.6104 -17.89749,-24.1248 -39.44329,-25.3304 -42.45409,-2.3755 -44.40047,-56.9074 -2.153,-60.3207 22.53433,-1.8206 54.22372,7.518 67.36247,19.8511 3.10541,2.915 6.90032,6.4586 8.43312,7.8746 13.9857,12.9201 26.11258,37.748 37.32915,76.4254 1.43551,4.95 4.58819,14.625 7.00594,21.5 2.41776,6.875 5.30139,15.875 6.40799,20 4.6464,17.3191 13.36866,45.7108 22.11946,72 1.7392,5.225 6.2171,19.85 9.9509,32.5 3.7338,12.65 9.0519,29.75 11.818,38 2.7661,8.25 6.671,20.175 8.6775,26.5 2.0065,6.325 4.3049,12.9266 5.1074,14.6702 0.8025,1.7436 1.7185,4.6686 2.0356,6.5 5.9947,34.6257 41.3523,42.6287 60.1143,13.6065 15.9894,-24.7334 26.7535,-50.2102 24.0237,-56.8606 -6.1365,-14.9505 -13.6403,-34.6334 -14.2641,-37.4161 -0.7777,-3.4687 -7.6041,-24.8669 -10.0491,-31.5 -1.8358,-4.9802 -2.1766,-6.1577 -8.8292,-30.5 -2.5553,-9.35 -5.0806,-18.0272 -5.6116,-19.2827 -0.9277,-2.1931 -1.4596,-4.44 -5.9005,-24.9225 -10.2159,-47.1182 -1.1071,-86.8536 24.8251,-108.2948 2.3282,-1.925 5.6649,-4.7217 7.4149,-6.215 20.1417,-17.1865 68.3352,-19.2212 92.6819,-3.9129 39.4671,24.8154 49.6997,63.1286 34.8879,130.6279 -4.7031,21.4324 -8.0548,35.2416 -9.3445,38.5 -0.762,1.925 -3.2704,9.575 -5.5744,17 -5.9892,19.3019 -7.9301,25.0662 -15.994,47.5 -9.8981,27.5363 -9.6709,26.9526 -11.9407,30.6756 -2.8941,4.747 -2.6888,5.7699 3.8575,19.2195 3.2404,6.6577 7.5876,15.7049 9.6604,20.1049 13.4798,28.6139 27.4314,37.1671 49.7627,30.5078 12.7485,-3.8017 23.4541,-31.5486 41.6727,-108.0078 2.2934,-9.625 4.5663,-18.625 5.0509,-20 0.4845,-1.375 3.3911,-12.175 6.4592,-24 6.2423,-24.0595 8.6317,-32.9873 14.4529,-54 2.2093,-7.975 5.1434,-19.225 6.5202,-25 1.3768,-5.775 4.3231,-17.25 6.5473,-25.5 2.2243,-8.25 5.6107,-21.3 7.5255,-29 5.213,-20.9635 9.7127,-37.5594 13.9689,-51.5208 0.758,-2.4865 1.654,-6.0865 1.991,-8 0.6837,-3.882 3.8352,-16.8234 5.9611,-24.4792 0.7637,-2.75 2.776,-10.175 4.4718,-16.5 1.6958,-6.325 3.9677,-14.65 5.0487,-18.5 1.081,-3.85 3.054,-11.5 4.3845,-17 2.0754,-8.5791 6.9595,-26.7446 12.0992,-45 0.7743,-2.75 1.7117,-6.575 2.0831,-8.5 2.5266,-13.0946 17.2908,-58.11288 21.8093,-66.49996 33.4375,-62.06462 111.7222,-67.87572 147.2162,-10.92791 15.0139,24.08882 15.834,57.42937 2.5072,101.92787 -0.4941,1.65 -4.5867,16.95 -9.0946,34 -4.5079,17.05 -9.4828,35.275 -11.0554,40.5 -1.5725,5.225 -5.3829,19.4 -8.4674,31.5 -3.0845,12.1 -7.5658,28.75 -9.9585,37 -2.3926,8.25 -5.1066,18.375 -6.0311,22.5 -0.9244,4.125 -2.2956,9.525 -3.0469,12 -0.7514,2.475 -1.8385,6.75 -2.4158,9.5 -0.5773,2.75 -1.4569,5.9 -1.9547,7 -1.3055,2.8849 -5.0418,15.7779 -7.1,24.5 -2.7042,11.4602 -9.7108,38.3179 -12.9134,49.5 -1.5752,5.5 -4.519,16.975 -6.5417,25.5 -2.0228,8.525 -6.0623,23.6 -8.9766,33.5 -2.9144,9.9 -6.5313,22.725 -8.0376,28.5 -1.5064,5.775 -4.4415,16.35 -6.5227,23.5 -15.1993,52.2191 -14.1968,63.7087 6.1508,70.4941 11.8822,3.9625 154.7824,2.9418 167.381,-1.1955 16.0577,-5.2732 20.2168,-30.0313 6.666,-39.6804 -10.443,-7.436 -10.1441,-7.397 -59.5308,-7.7781 -24.7512,-0.1911 -46.5155,-0.7652 -48.3652,-1.2759 -25.8042,-7.1249 -27.8584,-44.9671 -3.0494,-56.1784 10.4751,-4.7337 108.7524,-3.7169 117.9785,1.2208 0.9776,0.5232 4.5953,1.837 8.0392,2.9196 75.1711,23.6299 68.8713,140.2151 -8.6584,160.23424 -20.821,5.3763 -167.6067,6.7997 -189.9413,1.8419 -63.6707,-14.1333 -80.569,-58.50144 -55.1951,-144.92024 1.9893,-6.7749 4.275,-15.3249 5.0796,-19 1.601,-7.3134 3.6479,-14.896 8.5526,-31.6821 1.7677,-6.05 5.121,-18.425 7.4517,-27.5 7.6545,-29.8038 20.2036,-77.2895 23.388,-88.5 1.7186,-6.05 5.5684,-20.45 8.5551,-32 2.9867,-11.55 6.5748,-25.05 7.9734,-30 1.3987,-4.95 5.2165,-19.358 8.4839,-32.0179 3.2675,-12.6599 7.1214,-26.6099 8.5643,-31 2.3788,-7.2377 5.8256,-20.0813 7.107,-26.4821 0.2752,-1.375 1.1844,-4.975 2.0203,-8 3.1712,-11.4757 6.322,-22.7635 8.3739,-30 1.1696,-4.125 3.2089,-12 4.5316,-17.5 3.1116,-12.938 5.8643,-23.5023 8.0776,-31 6.2865,-21.29637 -2.0726,-38.47985 -19.1383,-39.34163 -18.7305,-0.94585 -23.9669,7.2947 -37.4023,58.85983 -2.7918,10.715 -6.8919,25.5568 -9.1113,32.9818 -2.2193,7.425 -5.1407,18.1071 -6.492,23.7379 -1.3512,5.6309 -5.1014,20.0309 -8.3337,32 -3.2323,11.9692 -7.316,27.8371 -9.0749,35.2621 -2.9704,12.539 -4.1619,16.8552 -10.6281,38.5 -1.3144,4.4 -4.0128,14.525 -5.9963,22.5 -1.9836,7.975 -3.9686,15.85 -4.4112,17.5 -5.4109,20.1702 -7.3677,27.6321 -8.1296,31 -0.9873,4.3648 -4.4261,17.1032 -11.3981,42.2224 -2.4765,8.9222 -5.1648,19.0775 -5.9741,22.5672 -1.3983,6.0293 -4.7528,18.2971 -7.9872,29.2104 -0.815,2.75 -3.5551,13.325 -6.0892,23.5 -2.534,10.175 -5.7662,22.775 -7.1826,28 -1.4164,5.225 -5.6606,21.425 -9.4316,36 -8.3389,32.2304 -6.8953,26.9951 -11.7969,42.7824 -28.2933,91.12754 -123.9766,106.56044 -172.921,27.8906 -6.4369,-10.3463 -6.01,-10.2498 -10.7217,-2.423 -15.3483,25.4962 -28.1918,37.59194 -49.3824,46.50744 -11.7285,4.9345 -36.9384,6.7297 -52,3.7029 z m 109.5917,-217.21034 c 0.3464,-1.5125 2.326,-8.375 4.399,-15.25 4.769,-15.8157 10.9947,-42.1451 16.9066,-71.5 5.2282,-25.96 -8.8414,-47.3451 -27.3263,-41.5346 -1.6891,0.5309 -4.421,1.2407 -6.071,1.5773 -12.3538,2.5203 -16.2547,17.0316 -12.0853,44.9573 3.6318,24.3249 5.982,34.4545 13.5727,58.5 2.6912,8.525 5.4156,17.525 6.0542,20 1.801,6.9803 3.4294,8.1434 4.5501,3.25 z"
       id="path2" />
  </g>
</svg>
